<?xml version="1.0" encoding="UTF-8" standalone="no"?>
<svg
   xmlns:dc="http://purl.org/dc/elements/1.1/"
   xmlns:cc="http://creativecommons.org/ns#"
   xmlns:rdf="http://www.w3.org/1999/02/22-rdf-syntax-ns#"
   xmlns:svg="http://www.w3.org/2000/svg"
   xmlns="http://www.w3.org/2000/svg"
   id="svg1"
   height="91"
   width="176"
   version="1.1">
  <metadata
     id="metadata3793">
    <rdf:RDF>
      <cc:Work
         rdf:about="">
        <dc:format>image/svg+xml</dc:format>
        <dc:type
           rdf:resource="http://purl.org/dc/dcmitype/StillImage" />
        <dc:title />
      </cc:Work>
    </rdf:RDF>
  </metadata>
  <defs
     id="defs3791" />
  <path
     id="path3822"
     d="M 1.6367188 0.4140625 C 1.2727389 0.43229991 1.0644531 0.67488735 1.0644531 1.109375 C 1.0644531 2.741159 11.080806 8.1891624 24.310547 13.753906 C 34.548881 18.060393 48.989315 27.36953 56.097656 34.244141 C 57.631669 35.727713 58.706069 37.081637 58.730469 37.5625 C 58.739274 37.736045 58.290536 38.593705 57.732422 39.46875 C 54.952672 43.827011 53.207375 48.614737 52.480469 53.876953 C 52.151988 56.254904 52.201452 63.068708 52.568359 66.039062 C 52.827285 68.135249 52.829153 68.447122 52.59375 68.902344 C 52.448443 69.183336 51.405698 70.393762 50.275391 71.589844 C 47.81252 74.196031 46.95496 75.243814 46.414062 76.316406 C 45.537756 78.054109 45.715161 79.569159 46.849609 80.039062 C 47.618033 80.357354 48.943645 80.083291 51.228516 79.130859 C 53.780325 78.067155 55.47118 77.465321 55.587891 77.582031 C 55.721145 77.715287 55.093838 80.070548 53.941406 83.751953 C 52.549215 88.19926 52.37492 89.932966 53.259766 90.552734 C 53.759667 90.902876 53.973287 90.893537 54.771484 90.486328 C 56.021871 89.848428 58.573945 87.76096 63.996094 82.945312 C 65.211434 81.865915 66.826176 80.466858 67.583984 79.835938 L 68.962891 78.689453 L 71.634766 79.369141 C 76.537111 80.617966 82.142839 81.426647 88.65625 81.824219 C 92.80803 82.077639 102.56737 81.931265 107.13086 81.546875 C 112.66889 81.080398 118.79688 80.27316 118.79688 80.009766 C 118.79688 79.928839 118.69771 79.860522 118.57617 79.857422 C 118.44948 79.854198 118.4991 79.743218 118.69141 79.597656 C 119.08717 79.298081 119.32812 79.39956 119.32812 79.865234 C 119.32812 80.0879 119.57852 80.31259 120.07812 80.539062 C 132.84675 86.327224 139.54955 88.863199 140.92773 88.425781 C 141.86201 88.129252 142.58566 86.535124 142.4375 85.099609 C 142.26148 83.394133 141.13601 81.655825 138.07812 78.359375 C 136.0596 76.18337 135.3165 75.202608 135.13281 74.470703 L 135.00781 73.972656 L 136.05273 74.082031 C 136.62713 74.142068 138.8856 74.763618 141.07227 75.462891 C 149.01324 78.002323 150.5672 78.321466 151.32031 77.568359 C 151.66145 77.227208 151.70743 77.029445 151.64453 76.160156 C 151.50761 74.267281 150.21819 72.311385 146.28516 68.029297 C 145.02121 66.653166 143.76932 65.123836 143.50195 64.630859 C 142.50055 62.784514 143.03661 60.31896 144.6875 59.183594 C 145.08008 58.913607 147.70971 57.608399 150.5293 56.28125 C 165.18216 49.384305 171.9106 44.666766 173.34375 40.285156 C 174.08896 38.006803 172.75382 34.519326 170.125 31.876953 C 168.5566 30.300467 166.71098 29.052875 163.96289 27.710938 C 159.17941 25.375083 153.11211 23.770326 142.9082 22.140625 L 138.82422 21.488281 L 138.72266 17.927734 C 138.4911 9.848323 137.13754 5.6436641 134.29688 4.1777344 C 132.56373 3.2833449 129.96973 3.7567406 128.50195 5.2363281 C 126.41899 7.336052 126.2287 11.461583 127.92188 17.814453 C 128.99358 21.835522 128.9704 21.710378 128.68555 21.890625 C 128.54594 21.978965 128.2333 22.050724 127.99023 22.050781 C 126.98831 22.051009 126.758 21.738405 125.14844 18.191406 C 122.75884 12.925418 121.12519 10.449431 119.33008 9.3730469 C 117.57463 8.3204412 116.07554 8.6550992 114.41797 10.46875 C 113.22757 11.771235 112.76912 12.992427 112.65625 15.162109 C 112.55462 17.115842 112.74233 18.511096 113.59375 22.095703 L 114.21289 24.699219 L 113.5332 25.3125 C 112.71016 26.056068 112.1704 27.028844 111.20703 29.507812 C 109.93652 32.777171 109.21191 33.401655 106.29102 33.744141 C 102.84968 34.147653 97.654058 33.523986 84.759766 31.160156 C 76.194209 29.589889 74.427709 29.371708 72.341797 29.630859 C 70.11239 29.907837 68.270161 30.544413 65.263672 32.076172 L 62.728516 33.367188 L 60.490234 31.265625 C 49.663223 21.100307 37.38998 13.504007 26.753906 10.384766 C 19.710544 8.3191594 16.111869 6.9072146 6.2792969 2.3457031 C 4.2375261 1.3984879 2.3348942 0.55398444 2.0507812 0.47070312 C 1.8967223 0.42554422 1.7580454 0.40798336 1.6367188 0.4140625 z M 165.79297 13.664062 C 165.6279 13.633312 165.54355 13.76618 165.36914 14.183594 C 165.03775 14.976742 164.3191 18.279208 163.95703 20.673828 C 163.5841 23.140262 163.53823 25.447079 163.85352 25.828125 C 164.68204 26.829432 165.30292 25.235142 166.00195 20.314453 C 166.19045 18.987535 166.34566 17.010307 166.34766 15.919922 C 166.35019 14.107133 166.32028 13.919726 165.99219 13.744141 C 165.91309 13.701808 165.84799 13.674313 165.79297 13.664062 z M 173.90234 15.183594 C 173.00819 15.172749 170.48097 18.426526 168.48438 22.314453 C 167.18168 24.851178 166.7609 26.462064 167.26953 26.970703 C 167.59246 27.293625 168.01709 27.225695 168.42773 26.785156 C 169.97894 25.120999 174.48651 16.194084 174.17969 15.394531 C 174.125 15.252013 174.03008 15.185143 173.90234 15.183594 z M 142.50195 28.447266 C 143.00585 28.477884 143.49791 28.653497 143.83984 28.96875 C 145.20922 30.23128 145.06656 32.672306 143.56445 33.675781 C 142.78644 34.195501 141.82856 34.19726 141.07031 33.679688 C 139.41561 32.550241 139.42678 29.947427 141.08984 28.802734 C 141.48297 28.532146 141.99806 28.416648 142.50195 28.447266 z M 135.74023 31 C 135.82216 30.949366 136.14153 31.575467 136.45117 32.390625 C 137.48199 35.104359 139.06808 36.350468 142.04883 36.789062 L 143.63477 37.021484 L 143.01562 37.408203 C 142.67533 37.620805 142.00486 37.912343 141.52539 38.056641 C 141.04591 38.200937 140.52945 38.312734 140.37695 38.302734 C 138.4722 38.178428 136.72341 36.617737 135.94922 34.351562 C 135.58618 33.288893 135.45484 31.17638 135.74023 31 z M 151.21289 43.697266 C 151.41749 43.691651 151.57236 43.720612 151.66992 43.785156 C 151.89202 43.932129 151.88396 44.003441 151.61133 44.304688 C 150.9259 45.062083 146.81477 46.903864 143.28125 48.035156 C 142.30898 48.34644 141.4145 48.632022 141.29297 48.669922 C 140.68592 48.859247 141.22774 48.380523 142.60742 47.509766 C 145.93543 45.409358 149.78066 43.73657 151.21289 43.697266 z M 152.86328 47.195312 C 153.07432 47.246457 153.20055 47.425004 153.23633 47.736328 C 153.35163 48.73964 151.70632 50.512587 148.95703 52.347656 C 147.2265 53.502731 145.49023 54.486782 145.49023 54.3125 C 145.49023 53.977651 147.33016 51.664123 148.81641 50.128906 C 150.83353 48.045318 152.23018 47.041878 152.86328 47.195312 z "
     style="fill:#ffffff;stroke-width:0.17677669" />
</svg>
