<?xml version="1.0" encoding="UTF-8" standalone="no"?>
<svg
   xmlns:dc="http://purl.org/dc/elements/1.1/"
   xmlns:cc="http://creativecommons.org/ns#"
   xmlns:rdf="http://www.w3.org/1999/02/22-rdf-syntax-ns#"
   xmlns:svg="http://www.w3.org/2000/svg"
   xmlns="http://www.w3.org/2000/svg"
   xmlns:xlink="http://www.w3.org/1999/xlink"
   xmlns:sodipodi="http://sodipodi.sourceforge.net/DTD/sodipodi-0.dtd"
   xmlns:inkscape="http://www.inkscape.org/namespaces/inkscape"
   inkscape:export-ydpi="96"
   inkscape:export-xdpi="96"
   inkscape:export-filename="/home/maug/GIT/screensaver/xfce4-screensaver/data/icons/48x48/org.xfce.ScreenSaver.png"
   inkscape:version="1.0 (4035a4fb49, 2020-05-01)"
   sodipodi:docname="org.xfce.ScreenSaver.svg"
   id="svg18"
   version="1.1"
   width="48"
   height="48">
  <metadata
     id="metadata24">
    <rdf:RDF>
      <cc:Work
         rdf:about="">
        <dc:format>image/svg+xml</dc:format>
        <dc:type
           rdf:resource="http://purl.org/dc/dcmitype/StillImage" />
        <dc:title />
      </cc:Work>
    </rdf:RDF>
  </metadata>
  <defs
     id="defs22">
    <linearGradient
       id="linearGradient1175"
       inkscape:collect="always">
      <stop
         id="stop1171"
         offset="0"
         style="stop-color:#d2d8dc;stop-opacity:1" />
      <stop
         id="stop1173"
         offset="1"
         style="stop-color:#758087;stop-opacity:1" />
    </linearGradient>
    <linearGradient
       inkscape:collect="always"
       id="linearGradient948">
      <stop
         style="stop-color:#d2d8dc;stop-opacity:1"
         offset="0"
         id="stop944" />
      <stop
         style="stop-color:#758087;stop-opacity:1"
         offset="1"
         id="stop946" />
    </linearGradient>
    <linearGradient
       y2="233.40434"
       x2="1118.7346"
       y1="283.53955"
       x1="1118.7346"
       gradientUnits="userSpaceOnUse"
       id="linearGradient942"
       xlink:href="#linearGradient948"
       inkscape:collect="always" />
    <linearGradient
       y2="233.40434"
       x2="1118.7346"
       y1="283.53955"
       x1="1118.7346"
       gradientUnits="userSpaceOnUse"
       id="linearGradient1134"
       xlink:href="#linearGradient1175"
       inkscape:collect="always" />
    <linearGradient
       id="linearGradient9567">
      <stop
         id="stop9569"
         offset="0"
         style="stop-color:#204a87;stop-opacity:1" />
      <stop
         id="stop9571"
         offset="1"
         style="stop-color:#081527;stop-opacity:0.99" />
    </linearGradient>
    <radialGradient
       r="19.00016"
       fy="37.921711"
       fx="24.006104"
       cy="37.921711"
       cx="24.006104"
       gradientTransform="matrix(2.8072129,0,0,1.3866673,-43.39006,61.789292)"
       gradientUnits="userSpaceOnUse"
       id="radialGradient9531"
       xlink:href="#linearGradient9567"
       inkscape:collect="always" />
  </defs>
  <sodipodi:namedview
     inkscape:document-rotation="0"
     inkscape:pagecheckerboard="false"
     inkscape:guide-bbox="true"
     showguides="false"
     inkscape:current-layer="g16"
     inkscape:window-maximized="1"
     inkscape:window-y="0"
     inkscape:window-x="0"
     inkscape:cy="16.575308"
     inkscape:cx="41.503698"
     inkscape:zoom="16"
     showgrid="true"
     id="namedview20"
     inkscape:window-height="1031"
     inkscape:window-width="1920"
     inkscape:pageshadow="2"
     inkscape:pageopacity="0"
     guidetolerance="10"
     gridtolerance="10"
     objecttolerance="10"
     borderopacity="1"
     bordercolor="#666666"
     pagecolor="#ffffff">
    <sodipodi:guide
       inkscape:locked="false"
       id="guide1036"
       orientation="0,1"
       position="-32.300885,140.26549" />
    <inkscape:grid
       empspacing="4"
       id="grid841"
       type="xygrid" />
    <sodipodi:guide
       inkscape:locked="false"
       id="guide895"
       orientation="1,0"
       position="-31.532847,112.9927" />
  </sodipodi:namedview>
  <g
     transform="translate(0,-80)"
     style="stroke-width:4"
     id="g16">
    <path
       d="m 1084,61.125 a 27.159795,27.159795 0 0 0 -27.0625,24.900391 l -16,191.999999 A 27.159795,27.159795 0 0 0 1068,307.4375 h 48 48 a 27.159795,27.159795 0 0 0 27.0625,-29.41211 l -16,-191.999999 A 27.159795,27.159795 0 0 0 1148,61.125 h -32 z"
       id="rect2101-7"
       style="display:inline;opacity:1;fill:#a7b0b7;fill-opacity:1;stroke:none;stroke-width:20;stroke-linecap:square;stroke-linejoin:miter;stroke-miterlimit:4;stroke-dasharray:none;stroke-dashoffset:0;stroke-opacity:1;enable-background:new"
       inkscape:original="M 1084 88.28125 L 1068 280.28125 L 1116 280.28125 L 1164 280.28125 L 1148 88.28125 L 1116 88.28125 L 1084 88.28125 z "
       inkscape:radius="27.15708"
       sodipodi:type="inkscape:offset"
       transform="matrix(0.10644519,0,0,0.10104106,-94.792832,93.936189)" />
    <path
       d="m 1084,61.125 a 27.159795,27.159795 0 0 0 -27.0625,24.900391 l -16,191.999999 A 27.159795,27.159795 0 0 0 1068,307.4375 h 48 48 a 27.159795,27.159795 0 0 0 27.0625,-29.41211 l -16,-191.999999 A 27.159795,27.159795 0 0 0 1148,61.125 h -32 z"
       id="rect2101"
       style="display:inline;opacity:1;fill:url(#linearGradient1134);fill-opacity:1;stroke:none;stroke-width:20;stroke-linecap:square;stroke-linejoin:miter;stroke-miterlimit:4;stroke-dasharray:none;stroke-dashoffset:0;stroke-opacity:1;enable-background:new"
       inkscape:original="M 1084 88.28125 L 1068 280.28125 L 1116 280.28125 L 1164 280.28125 L 1148 88.28125 L 1116 88.28125 L 1084 88.28125 z "
       inkscape:radius="27.15708"
       sodipodi:type="inkscape:offset"
       transform="matrix(0.10577991,0,0,0.10104106,-94.100379,92.936189)" />
    <path
       inkscape:connector-curvature="0"
       style="fill:#758087;fill-opacity:1;stroke-width:1.54228604"
       id="path6"
       d="m 3.5716143,85.726043 c -0.8705634,0 -1.571414,0.69176 -1.571414,1.553054 V 114.44695 A 1.5871283,1.5288344 0 0 0 3.5716143,116 H 44.428386 c 0.870563,0 1.571414,-0.69327 1.571414,-1.55305 V 87.279097 a 1.5871283,1.5288344 0 0 0 -1.571414,-1.553054 z" />
    <path
       inkscape:connector-curvature="0"
       style="fill:#d1d7db;fill-opacity:1;stroke:#a7b0b7;stroke-width:0.97208714;stroke-miterlimit:4;stroke-dasharray:none;stroke-opacity:1"
       id="path8"
       d="m 4.0227546,84.48603 c -0.8513379,0 -1.536711,0.669623 -1.536711,1.501395 v 27.025125 c 0,0.83178 0.6853731,1.50141 1.536711,1.50141 H 43.977248 c 0.851337,0 1.536708,-0.66963 1.536708,-1.50141 V 85.987425 c 0,-0.831772 -0.685371,-1.501395 -1.536708,-1.501395 z" />
    <path
       inkscape:connector-curvature="0"
       style="fill:#18262f;fill-opacity:1;stroke-width:1.67705083"
       id="path12-5"
       d="m 4,86 h 40 v 27 H 4 Z" />
    <rect
       style="display:inline;fill:url(#radialGradient9531);fill-opacity:1;fill-rule:evenodd;stroke:none;stroke-width:0.81852001;enable-background:new"
       id="rect9511"
       width="40"
       height="27"
       x="4"
       y="86" />
    <path
       inkscape:connector-curvature="0"
       id="path5549"
       d="m 35.33032,96 c 0.743615,0.901048 1.194576,2.052713 1.194576,3.312215 0,2.878855 -2.333799,5.212665 -5.21268,5.212665 -1.259496,0 -2.411141,-0.45094 -3.312216,-1.19456 C 28.630295,106.01696 31.039699,108 33.918558,108 37.277257,108 40,105.27724 40,101.91855 40,99.039658 38.016959,96.630299 35.33032,96 Z"
       style="color:#bebebe;display:inline;overflow:visible;visibility:visible;fill:#fcf4c0;fill-opacity:1;fill-rule:nonzero;stroke:none;stroke-width:1.2;marker:none;enable-background:accumulate" />
    <rect
       ry="0"
       rx="0"
       y="90"
       x="12"
       height="2"
       width="2"
       id="rect1046-5"
       style="fill:#fcf4c0;fill-rule:evenodd;stroke-width:7.50822" />
    <rect
       style="fill:#fcf4c0;fill-rule:evenodd;stroke-width:7.50822"
       id="rect1046-5-7"
       width="2"
       height="2"
       x="8"
       y="96"
       rx="0"
       ry="0" />
    <rect
       style="fill:#fcf4c0;fill-rule:evenodd;stroke-width:7.50822"
       id="rect1046-5-5"
       width="2"
       height="2"
       x="12"
       y="106"
       rx="0"
       ry="0" />
    <rect
       style="fill:#fcf4c0;fill-rule:evenodd;stroke-width:7.50822"
       id="rect1046-5-2"
       width="2"
       height="2"
       x="32"
       y="88"
       rx="0"
       ry="0" />
    <rect
       style="fill:#fcf4c0;fill-rule:evenodd;stroke-width:7.50822"
       id="rect1046-5-9"
       width="2"
       height="2"
       x="20"
       y="100"
       rx="0"
       ry="0" />
    <rect
       style="fill:#fcf4c0;fill-rule:evenodd;stroke-width:7.50822"
       id="rect1046-5-1"
       width="2"
       height="2"
       x="24"
       y="108"
       rx="0"
       ry="0" />
    <rect
       ry="0"
       rx="0"
       y="92"
       x="22"
       height="2"
       width="2"
       id="rect1046-5-56"
       style="fill:#fcf4c0;fill-rule:evenodd;stroke-width:7.50822" />
  </g>
</svg>
